# xmcd CD database file
#
# Track frame offsets:
#	150
#	34591
#	81822
#	104574
#	141538
#	155703
#	170858
#	206820
#
# Disc length: 3395 seconds
#
# Revision: 0
# Processed by: cddbd v1.5.2PL0 Copyright (c) Steve Scherf et al.
# Submitted via: CDex 1.51
#
DISCID=770d4108
DTITLE=PLiage Tribu - Espace beauté
DYEAR=2005
DGENRE=Jazz
TTITLE0=Popapol, popaben
TTITLE1=Espace beauté
TTITLE2=Sur le dos de la cuiller
TTITLE3=Sortie
TTITLE4=Chantier
TTITLE5=Libération
TTITLE6=Paraboles
TTITLE7=Bobo l'esprit bleu
EXTD=YEAR: 2005
EXTT0=
EXTT1=
EXTT2=
EXTT3=
EXTT4=
EXTT5=
EXTT6=
EXTT7=
PLAYORDER=
